#!OML:ASF X:\für Bonn\!DataBase\2005_08_12_Daniel\c3d\Daniel.ASF
:FULLY-SPECIFIED
:DEGREES
170
root -0.0669195 6.8746 -14.7854 325.935 20.5154 -4.03418
lowerback 83.0253 -5.52829 6.38539
upperback 11.981 0.590575 -2.48633
thorax -6.09993 1.40519 -5.63738
lowerneck 6.58455 -0.724434 -3.05894
upperneck 21.3358 -1.10982 2.54025
head 5.40359 -0.521885 1.30097
rclavicle 5.14852e-014 -4.11484e-014
rhumerus 16.6248 3.60243 -102.27
rradius 19.9857
rwrist 44.7349
rhand -56.9163 44.5368
rfingers 7.12502
rthumb -29.2115 16.8096
lclavicle 5.14852e-014 -4.11484e-014
lhumerus -19.7195 0.367211 86.9431
lradius 50.3914
lwrist -6.85935
lhand -12.1665 -6.94806
lfingers 7.12502
lthumb 13.8965 22.5676
rfemur 31.4122 -38.6949 -138.131
rtibia 159.425
rfoot -44.7181 -288.275
rtoes 9.43426
lfemur -28.2181 75.5141 72.2922
ltibia 156.473
lfoot -69.1118 -71.3712
ltoes 10.2224
171
root -0.076213 6.85898 -14.7799 325.721 20.5996 -4.03652
lowerback 83.0019 -5.57653 6.41685
upperback 11.9708 0.579692 -2.45324
thorax -6.11347 1.3989 -5.60499
lowerneck 6.68289 -0.705653 -3.17028
upperneck 21.3537 -1.10731 2.66712
head 5.39418 -0.521945 1.36054
rclavicle 3.26007e-014 -3.63776e-014
rhumerus 16.742 4.75853 -102.016
rradius 19.831
rwrist 45.4168
rhand -56.0097 42.3388
rfingers 7.12502
rthumb -28.3455 14.4644
lclavicle 3.26007e-014 -3.63776e-014
lhumerus -19.754 0.308828 87.1169
lradius 50.4745
lwrist -7.02192
lhand -12.1142 -6.94948
lfingers 7.12502
lthumb 13.947 22.5627
rfemur 30.7882 -38.6036 -138.034
rtibia 159.459
rfoot -45.4844 -287.656
rtoes 9.40056
lfemur -28.6776 75.4166 72.0998
ltibia 156.518
lfoot -69.3113 -71.6443
ltoes 10.2106
172
root -0.0853213 6.84472 -14.7749 325.528 20.676 -4.05127
lowerback 82.961 -5.64085 6.4796
upperback 11.9532 0.573273 -2.43357
thorax -6.13639 1.39652 -5.60241
lowerneck 6.89428 -0.699177 -3.22633
upperneck 21.2544 -1.11934 2.77215
head 5.3296 -0.526957 1.40316
rclavicle -3.29983e-014 3.10104e-014
rhumerus 16.8906 6.18882 -101.612
rradius 19.6616
rwrist 45.7268
rhand -55.0132 40.0843
rfingers 7.12502
rthumb -27.3928 12.0554
lclavicle -3.29983e-014 3.10104e-014
lhumerus -19.7955 0.230147 87.2556
lradius 50.551
lwrist -7.14742
lhand -11.9907 -6.93241
lfingers 7.12502
lthumb 14.0659 22.5716
rfemur 30.2125 -38.5281 -137.914
rtibia 159.482
rfoot -46.4793 -287.06
rtoes 9.50269
lfemur -29.1268 75.3449 71.8563
ltibia 156.559
lfoot -69.518 -71.7667
ltoes 10.0869
173
root -0.0938893 6.83445 -14.7701 325.347 20.7487 -4.03987
lowerback 82.9382 -5.67598 6.51288
upperback 11.9383 0.578043 -2.39114
thorax -6.15412 1.3953 -5.56594
lowerneck 7.06945 -0.680098 -3.35274
upperneck 21.1755 -1.12176 2.9183
head 5.27755 -0.530216 1.47091
rclavicle 2.74323e-014 1.03368e-014
rhumerus 17.0811 7.78912 -101.071
rradius 19.4889
rwrist 45.8262
rhand -53.8671 37.9713
rfingers 7.12502
rthumb -26.2961 9.77383
lclavicle 2.74323e-014 1.03368e-014
lhumerus -19.8222 0.165376 87.4438
lradius 50.6517
lwrist -7.18867
lhand -11.9306 -6.92679
lfingers 7.12502
lthumb 14.1239 22.5732
rfemur 29.6595 -38.5093 -137.777
rtibia 159.471
rfoot -47.2429 -286.456
rtoes 9.6137
lfemur -29.4005 75.2332 71.7132
ltibia 156.563
lfoot -69.7245 -71.914
ltoes 10.0182
174
root -0.101568 6.82506 -14.7658 325.188 20.8152 -4.03294
lowerback 82.8912 -5.71819 6.57089
upperback 11.9184 0.590194 -2.36249
thorax -6.17949 1.39924 -5.55858
lowerneck 7.30222 -0.680897 -3.41791
upperneck 21.0752 -1.14388 3.02502
head 5.20988 -0.54078 1.51541
rclavicle 3.06128e-014 -6.55989e-015
rhumerus 17.3057 9.52135 -100.432
rradius 19.3569
rwrist 45.7132
rhand -52.6784 35.9846
rfingers 7.12502
rthumb -25.1577 7.62241
lclavicle 3.06128e-014 -6.55989e-015
lhumerus -19.8552 0.0768374 87.6097
lradius 50.7559
lwrist -7.20594
lhand -11.8599 -6.94852
lfingers 7.12502
lthumb 14.192 22.5467
rfemur 29.1963 -38.4917 -137.648
rtibia 159.44
rfoot -48.1131 -285.91
rtoes 9.83456
lfemur -29.8309 75.1459 71.3814
ltibia 156.564
lfoot -69.7747 -72.0654
ltoes 9.93698
175
root -0.109799 6.818 -14.762 325.052 20.9033 -4.02979
lowerback 82.8287 -5.7639 6.6271
upperback 11.905 0.597397 -2.32906
thorax -6.19988 1.40072 -5.54277
lowerneck 7.56101 -0.682644 -3.46701
upperneck 20.9483 -1.1688 3.13969
head 5.12985 -0.551583 1.55958
rclavicle -2.38542e-015 4.92986e-014
rhumerus 17.534 11.3953 -99.6813
rradius 19.3006
rwrist 45.4001
rhand -51.4438 34.0775
rfingers 7.12502
rthumb -23.9742 5.55443
lclavicle -2.38542e-015 4.92986e-014
lhumerus -19.8394 0.0268247 87.759
lradius 50.8522
lwrist -7.14386
lhand -11.7305 -6.97303
lfingers 7.12502
lthumb 14.3167 22.5134
rfemur 28.8066 -38.4862 -137.54
rtibia 159.395
rfoot -49.1444 -285.398
rtoes 10.0498
lfemur -30.4264 75.0683 70.8378
ltibia 156.557
lfoot -69.8122 -72.1225
ltoes 9.88511
176
root -0.117289 6.81232 -14.7597 324.926 20.9899 -4.01598
lowerback 82.7802 -5.8325 6.71094
upperback 11.8803 0.601925 -2.31876
thorax -6.23009 1.40514 -5.56404
lowerneck 7.87067 -0.70667 -3.44756
upperneck 20.7526 -1.2149 3.20884
head 5.0206 -0.57052 1.57715
rclavicle -3.69739e-014 2.10712e-014
rhumerus 17.7822 13.1598 -98.9461
rradius 19.272
rwrist 45.0839
rhand -50.17 32.3904
rfingers 7.12502
rthumb -22.7523 3.71199
lclavicle -3.69739e-014 2.10712e-014
lhumerus -19.7793 -0.051732 87.9046
lradius 50.8802
lwrist -7.09357
lhand -11.6679 -7.08054
lfingers 7.12502
lthumb 14.3771 22.4016
rfemur 28.4058 -38.5569 -137.398
rtibia 159.347
rfoot -49.9753 -284.944
rtoes 10.1329
lfemur -31.0979 74.9631 70.1829
ltibia 156.531
lfoot -69.719 -72.2752
ltoes 9.80244
177
root -0.125193 6.80849 -14.7576 324.809 21.0812 -4.00138
lowerback 82.7368 -5.84792 6.73831
upperback 11.846 0.621766 -2.25788
thorax -6.27314 1.4052 -5.51015
lowerneck 8.16249 -0.713656 -3.48351
upperneck 20.5972 -1.23871 3.27103
head 4.92686 -0.58305 1.60261
rclavicle -2.42517e-014 1.23246e-014
rhumerus 17.9974 14.7585 -98.2849
rradius 19.2558
rwrist 44.9973
rhand -48.9376 30.733
rfingers 7.12502
rthumb -21.5691 1.91418
lclavicle -2.42517e-014 1.23246e-014
lhumerus -19.7211 -0.0131662 88.0914
lradius 50.8834
lwrist -7.00617
lhand -11.6233 -7.18804
lfingers 7.12502
lthumb 14.42 22.291
rfemur 28.0608 -38.5915 -137.27
rtibia 159.273
rfoot -50.8204 -284.464
rtoes 10.3116
lfemur -31.8458 74.8575 69.4053
ltibia 156.501
lfoot -69.6445 -72.3105
ltoes 9.69265
178
root -0.131403 6.80562 -14.7562 324.694 21.1626 -3.99555
lowerback 82.6772 -5.90552 6.83291
upperback 11.8235 0.646488 -2.23798
thorax -6.29984 1.41749 -5.53213
lowerneck 8.30773 -0.760676 -3.43268
upperneck 20.516 -1.31286 3.35808
head 4.88074 -0.611342 1.62035
rclavicle -4.13472e-014 -1.5704e-014
rhumerus 18.2626 16.2436 -97.6436
rradius 19.2069
rwrist 44.8286
rhand -47.7732 29.2894
rfingers 7.12502
rthumb -20.4505 0.346378
lclavicle -4.13472e-014 -1.5704e-014
lhumerus -19.6165 -0.0680887 88.2382
lradius 50.8672
lwrist -6.93185
lhand -11.5483 -7.29633
lfingers 7.12502
lthumb 14.4922 22.1776
rfemur 27.7199 -38.6721 -137.098
rtibia 159.184
rfoot -51.5658 -283.996
rtoes 10.4724
lfemur -32.5151 74.74 68.6863
ltibia 156.45
lfoot -69.504 -72.4518
ltoes 9.67143
179
root -0.137979 6.80392 -14.7555 324.613 21.2638 -3.96652
lowerback 82.6 -5.95372 6.91376
upperback 11.8019 0.6688 -2.21285
thorax -6.32944 1.42741 -5.54211
lowerneck 8.37198 -0.820295 -3.367
upperneck 20.4794 -1.39405 3.39568
head 4.86155 -0.643612 1.6199
rclavicle -3.1408e-014 6.69904e-014
rhumerus 18.5226 17.5232 -97.0967
rradius 19.1195
rwrist 44.8713
rhand -46.6777 27.9708
rfingers 7.12502
rthumb -19.3974 -1.08168
lclavicle -3.1408e-014 6.69904e-014
lhumerus -19.5162 -0.0757113 88.397
lradius 50.8613
lwrist -6.87849
lhand -11.4774 -7.37646
lfingers 7.12502
lthumb 14.5606 22.0925
rfemur 27.4461 -38.7609 -136.998
rtibia 159.099
rfoot -52.4205 -283.572
rtoes 10.482
lfemur -33.3713 74.6517 67.7131
ltibia 156.41
lfoot -69.244 -72.4415
ltoes 9.63697
180
root -0.144252 6.80328 -14.7548 324.534 21.3474 -3.94374
lowerback 82.5271 -5.96254 6.9691
upperback 11.7797 0.714513 -2.156
thorax -6.35862 1.44143 -5.51413
lowerneck 8.44936 -0.873712 -3.30217
upperneck 20.4226 -1.46544 3.41957
head 4.83363 -0.672203 1.61543
rclavicle 1.59028e-015 3.57812e-015
rhumerus 18.7802 18.7966 -96.5517
rradius 19.0298
rwrist 44.8881
rhand -45.6677 26.5358
rfingers 7.12502
rthumb -18.426 -2.61152
lclavicle 1.59028e-015 3.57812e-015
lhumerus -19.3656 -0.0669566 88.5736
lradius 50.7913
lwrist -6.76973
lhand -11.472 -7.44675
lfingers 7.12502
lthumb 14.5658 22.0218
rfemur 27.1586 -38.8968 -136.836
rtibia 158.996
rfoot -52.9981 -283.097
rtoes 10.7073
lfemur -34.0433 74.5335 66.9396
ltibia 156.346
lfoot -69.0261 -72.5547
ltoes 9.61083
181
root -0.150004 6.80406 -14.7547 324.476 21.4395 -3.90999
lowerback 82.4565 -5.984 7.0428
upperback 11.7491 0.759755 -2.11848
thorax -6.39644 1.45841 -5.51628
lowerneck 8.522 -0.951883 -3.20485
upperneck 20.358 -1.5672 3.44113
head 4.80482 -0.713154 1.60427
rclavicle -7.95139e-016 2.3059e-014
rhumerus 19.0226 19.7588 -96.159
rradius 18.9014
rwrist 45.1129
rhand -44.6651 25.3383
rfingers 7.12502
rthumb -17.4614 -3.89748
lclavicle -7.95139e-016 2.3059e-014
lhumerus -19.2216 -0.0300963 88.7341
lradius 50.6985
lwrist -6.7828
lhand -11.4817 -7.5392
lfingers 7.12502
lthumb 14.5564 21.9301
rfemur 26.8691 -39.0832 -136.685
rtibia 158.9
rfoot -53.3313 -282.601
rtoes 10.8277
lfemur -35.0905 74.418 65.7195
ltibia 156.276
lfoot -68.5751 -72.6057
ltoes 9.54758
